# xmcd
#
# Track frame offsets: 
#        150
#        16411
#        34036
#        51146
#        62065
#        65850
#        84077
#        87080
#        103397
#        116444
#        132808
#        144224
#
# Disc length: 2112 seconds
#
# Revision: 5
# Processed by: cddbd v1.5.2PL0 Copyright (c) Steve Scherf et al.
# Submitted via: ExactAudioCopy v1.0b3
#
DISCID=9b083e0c
DTITLE=The Beatles - Let It Be (2009 Stereo Remaster)
DYEAR=1970
DGENRE=Rock
TTITLE0=Two Of Us
TTITLE1=Dig A Pony
TTITLE2=Across The Universe
TTITLE3=I Me Mine
TTITLE4=Dig It
TTITLE5=Let It Be
TTITLE6=Maggie Mae
TTITLE7=I've Got A Feeling
TTITLE8=One After 909
TTITLE9=The Long And Winding Road
TTITLE10=For You Blue
TTITLE11=Get Back
EXTD=
EXTT0=
EXTT1=
EXTT2=
EXTT3=
EXTT4=
EXTT5=
EXTT6=
EXTT7=
EXTT8=
EXTT9=
EXTT10=
EXTT11=
PLAYORDER=
